<?xml version="1.0" encoding="UTF-8" standalone="no"?>
<!-- Generator: Adobe Illustrator 16.0.0, SVG Export Plug-In . SVG Version: 6.00 Build 0)  -->

<svg
   xmlns:osb="http://www.openswatchbook.org/uri/2009/osb"
   xmlns:dc="http://purl.org/dc/elements/1.1/"
   xmlns:cc="http://creativecommons.org/ns#"
   xmlns:rdf="http://www.w3.org/1999/02/22-rdf-syntax-ns#"
   xmlns:svg="http://www.w3.org/2000/svg"
   xmlns="http://www.w3.org/2000/svg"
   xmlns:sodipodi="http://sodipodi.sourceforge.net/DTD/sodipodi-0.dtd"
   xmlns:inkscape="http://www.inkscape.org/namespaces/inkscape"
   version="1.1"
   id="Layer_1"
   x="0px"
   y="0px"
   width="960px"
   height="560px"
   viewBox="0 0 960 560"
   enable-background="new 0 0 960 560"
   xml:space="preserve"
   inkscape:version="0.48.4 r9939"
   sodipodi:docname="process-logo.svg"
   inkscape:export-filename="/home/dcramer/rax/rax-indexwar/src/main/webapp/common/img/process-fanatiguy.png"
   inkscape:export-xdpi="105.28515"
   inkscape:export-ydpi="105.28515"><metadata
     id="metadata10053"><rdf:RDF><cc:Work
         rdf:about=""><dc:format>image/svg+xml</dc:format><dc:type
           rdf:resource="http://purl.org/dc/dcmitype/StillImage" /><dc:title></dc:title></cc:Work></rdf:RDF></metadata><defs
     id="defs10051"><linearGradient
       id="linearGradient10981"
       osb:paint="solid"><stop
         style="stop-color:#000000;stop-opacity:1;"
         offset="0"
         id="stop10983" /></linearGradient><linearGradient
       id="linearGradient10975"
       osb:paint="solid"><stop
         style="stop-color:#0000ff;stop-opacity:1;"
         offset="0"
         id="stop10977" /></linearGradient></defs><sodipodi:namedview
     pagecolor="#ffffff"
     bordercolor="#666666"
     borderopacity="1"
     objecttolerance="10"
     gridtolerance="10"
     guidetolerance="10"
     inkscape:pageopacity="0"
     inkscape:pageshadow="2"
     inkscape:window-width="1920"
     inkscape:window-height="1056"
     id="namedview10049"
     showgrid="false"
     inkscape:zoom="2"
     inkscape:cx="413.62327"
     inkscape:cy="100"
     inkscape:window-x="0"
     inkscape:window-y="24"
     inkscape:window-maximized="1"
     inkscape:current-layer="Layer_1" /><g
     id="g8761"
     transform="matrix(0.73053182,0,0,0.63976085,137.1807,183.57291)"><path
       clip-rule="evenodd"
       stroke-miterlimit="3.8637"
       d="m 320.959,468.145 c 1.604,-3.498 0,-15.602 -14.435,-12.831"
       id="path8763"
       inkscape:connector-curvature="0"
       style="fill:none;stroke:#555555;stroke-width:1.5;stroke-linecap:round;stroke-linejoin:round;stroke-miterlimit:3.86369991" /><path
       clip-rule="evenodd"
       stroke-miterlimit="3.8637"
       d="m 307.254,456.626 c -0.437,-4.52 -10.352,-17.643 -23.767,-8.165 -5.505,3.889 -6.562,13.561 -3.062,18.664"
       id="path8765"
       inkscape:connector-curvature="0"
       style="fill:none;stroke:#555555;stroke-width:1.5;stroke-linecap:round;stroke-linejoin:round;stroke-miterlimit:3.86369991" /><path
       clip-rule="evenodd"
       stroke-miterlimit="3.8637"
       d="m 280.425,465.375 c -12.394,5.395 -8.894,24.788 3.208,24.788 12.102,0 31.789,0.05 35.286,-0.146 12.977,-0.729 16.04,-17.788 2.187,-23.037"
       id="path8767"
       inkscape:connector-curvature="0"
       style="fill:none;stroke:#555555;stroke-width:1.5;stroke-linecap:round;stroke-linejoin:round;stroke-miterlimit:3.86369991" /><path
       clip-rule="evenodd"
       stroke-miterlimit="3.8637"
       d="m 320.833,468.654 c 1.611,-3.518 0,-15.684 -14.511,-12.898"
       id="path8769"
       inkscape:connector-curvature="0"
       style="fill:none;stroke:#555555;stroke-width:1.5;stroke-linecap:round;stroke-linejoin:round;stroke-miterlimit:3.86369991" /><path
       clip-rule="evenodd"
       stroke-miterlimit="3.8637"
       d="m 307.056,457.074 c -0.44,-4.543 -10.406,-17.734 -23.892,-8.207 -5.534,3.909 -6.595,13.631 -3.079,18.761"
       id="path8771"
       inkscape:connector-curvature="0"
       style="fill:none;stroke:#555555;stroke-width:1.5;stroke-linecap:round;stroke-linejoin:round;stroke-miterlimit:3.86369991" /><path
       clip-rule="evenodd"
       stroke-miterlimit="3.8637"
       d="m 280.085,465.869 c -12.458,5.423 -8.94,24.918 3.225,24.918 12.166,0 31.956,0.05 35.471,-0.147 13.045,-0.732 16.123,-17.882 2.199,-23.158"
       id="path8773"
       inkscape:connector-curvature="0"
       style="fill:none;stroke:#555555;stroke-width:1.5;stroke-linecap:round;stroke-linejoin:round;stroke-miterlimit:3.86369991" /></g><g
     id="g10090"
     transform="matrix(0.92742566,0,0,0.83070698,24.852432,84.595569)"><g
       transform="translate(307,-0.88826034)"
       id="g9399"><path
         style="fill:none;stroke:#4d4d4d;stroke-width:2;stroke-linecap:round;stroke-linejoin:round;stroke-miterlimit:3.86369991"
         inkscape:connector-curvature="0"
         id="path9401"
         d="m 105.167,504.846 c -0.062,0.691 0,12.652 0.502,14.91 0.234,1.058 11.587,0.127 11.587,0.127"
         stroke-miterlimit="3.8637"
         clip-rule="evenodd" /><path
         style="fill:none;stroke:#4d4d4d;stroke-width:2;stroke-linecap:round;stroke-linejoin:round;stroke-miterlimit:3.86369991"
         inkscape:connector-curvature="0"
         id="path9403"
         d="m 105.921,505.097 c 0.312,-0.062 10.959,-0.251 10.959,-0.251"
         stroke-miterlimit="3.8637"
         clip-rule="evenodd" /><path
         style="fill:none;stroke:#4d4d4d;stroke-width:2;stroke-linecap:round;stroke-linejoin:round;stroke-miterlimit:3.86369991"
         inkscape:connector-curvature="0"
         id="path9405"
         d="m 106.171,512.484 c 0.315,-0.005 7.763,-0.121 8.137,-0.19"
         stroke-miterlimit="3.8637"
         clip-rule="evenodd" /></g><g
       transform="translate(20.5,-0.57169284)"
       id="g9453"><path
         style="fill:none;stroke:#4d4d4d;stroke-width:2;stroke-linecap:round;stroke-linejoin:round;stroke-miterlimit:3.86369991"
         inkscape:connector-curvature="0"
         id="path9455"
         d="m 316.061,505.312 c -0.079,0.691 0.359,14.258 0.485,14.633"
         stroke-miterlimit="3.8637"
         clip-rule="evenodd" /><path
         style="fill:none;stroke:#4d4d4d;stroke-width:2;stroke-linecap:round;stroke-linejoin:round;stroke-miterlimit:3.86369991"
         inkscape:connector-curvature="0"
         id="path9457"
         d="m 316.219,505.043 c 1.144,-0.269 6.099,-0.63 9.216,-0.17 4.823,0.713 5.426,6.03 0.712,7.565 -1.888,0.614 -8.784,0.905 -8.784,0.905"
         stroke-miterlimit="3.8637"
         clip-rule="evenodd" /></g><path
       style="fill:none;stroke:#4d4d4d;stroke-width:2;stroke-linecap:round;stroke-linejoin:round;stroke-miterlimit:3.86369991"
       inkscape:connector-curvature="0"
       id="path9515"
       d="m 456.287,506.00986 c -0.109,-0.712 -1.754,-2.411 -6.139,-2.356 -4.386,0.055 -7.4,3.892 -4.824,6.194 0.702,0.628 2.305,1.404 8.551,1.59 5.537,0.164 5.207,4.221 3.838,5.701 -1.371,1.479 -4.55,2.575 -8.716,2.137 -2.978,-0.313 -4.39,-1.925 -4.279,-2.583"
       stroke-miterlimit="3.8637"
       clip-rule="evenodd" /><path
       style="fill:none;stroke:#4d4d4d;stroke-width:2;stroke-linecap:round;stroke-linejoin:round;stroke-miterlimit:3.86369991"
       inkscape:connector-curvature="0"
       id="path9517"
       d="m 405.835,506.68431 c 0.017,-0.524 -0.673,-3.094 -6.251,-2.553 -4.75,0.461 -6.72,5.563 -6.653,8.319 0.067,2.755 1.612,6.923 7.527,6.923 5.915,0 7.044,-3.226 7.044,-3.226"
       stroke-miterlimit="3.8637"
       clip-rule="evenodd" /><path
       style="fill:none;stroke:#4d4d4d;stroke-width:2;stroke-linecap:round;stroke-linejoin:round;stroke-miterlimit:3.86369991"
       inkscape:connector-curvature="0"
       id="path9519"
       d="m 380.182,503.79066 c -1.285,0.159 -7.618,2.527 -6.143,9.658 1.441,6.977 8.726,6.71 12.669,4.652 3.687,-1.925 4.337,-8.372 1.854,-11.179 -2.099,-2.369 -5.716,-3.13 -8.337,-2.812"
       stroke-miterlimit="3.8637"
       clip-rule="evenodd" /><g
       transform="translate(0,-0.61570651)"
       id="g9555"><path
         style="fill:none;stroke:#4d4d4d;stroke-width:2;stroke-linecap:round;stroke-linejoin:round;stroke-miterlimit:3.86369991"
         inkscape:connector-curvature="0"
         id="path9557"
         d="m 356.093,505.309 c -0.089,0.688 0.111,14.261 0.23,14.64"
         stroke-miterlimit="3.8637"
         clip-rule="evenodd" /><path
         style="fill:none;stroke:#4d4d4d;stroke-width:2;stroke-linecap:round;stroke-linejoin:round;stroke-miterlimit:3.86369991"
         inkscape:connector-curvature="0"
         id="path9559"
         d="m 356.416,504.931 c 1.146,-0.251 6.109,-0.524 9.216,-0.011 4.811,0.797 5.321,6.124 0.579,7.576 -1.898,0.581 -8.798,0.752 -8.798,0.752"
         stroke-miterlimit="3.8637"
         clip-rule="evenodd" /><line
         style="fill:none;stroke:#4d4d4d;stroke-width:2;stroke-linecap:round;stroke-linejoin:round;stroke-miterlimit:3.86369991"
         id="line9561"
         y2="519.98901"
         x2="369.06799"
         y1="513.04102"
         x1="363.09299"
         stroke-miterlimit="3.8637"
         clip-rule="evenodd" /></g><path
       style="fill:none;stroke:#4d4d4d;stroke-width:2;stroke-linecap:round;stroke-linejoin:round;stroke-miterlimit:3.86369991"
       inkscape:connector-curvature="0"
       id="path9515-8"
       d="m 439.3189,506.00986 c -0.109,-0.712 -1.754,-2.411 -6.139,-2.356 -4.386,0.055 -7.4,3.892 -4.824,6.194 0.702,0.628 2.305,1.404 8.551,1.59 5.537,0.164 5.207,4.221 3.838,5.701 -1.371,1.479 -4.55,2.575 -8.716,2.137 -2.978,-0.313 -4.39,-1.925 -4.279,-2.583"
       stroke-miterlimit="3.8637"
       clip-rule="evenodd" /></g><rect
     inkscape:export-filename="/home/dcramer/rax/rax-indexwar/src/main/webapp/common/img/process-fanatiguy.png"
     inkscape:export-xdpi="105.14909"
     inkscape:export-ydpi="105.14909"
     style="fill:none;stroke:none"
     id="rect10203"
     width="169.48215"
     height="85.48214"
     x="329.50894"
     y="440.50894" /></svg>