<?xml version="1.0" encoding="UTF-8" standalone="no"?>
<!-- Generator: Adobe Illustrator 16.0.0, SVG Export Plug-In . SVG Version: 6.00 Build 0)  -->

<svg
   xmlns:dc="http://purl.org/dc/elements/1.1/"
   xmlns:cc="http://creativecommons.org/ns#"
   xmlns:rdf="http://www.w3.org/1999/02/22-rdf-syntax-ns#"
   xmlns:svg="http://www.w3.org/2000/svg"
   xmlns="http://www.w3.org/2000/svg"
   xmlns:sodipodi="http://sodipodi.sourceforge.net/DTD/sodipodi-0.dtd"
   xmlns:inkscape="http://www.inkscape.org/namespaces/inkscape"
   version="1.1"
   id="Layer_1"
   x="0px"
   y="0px"
   width="960px"
   height="560px"
   viewBox="0 0 960 560"
   enable-background="new 0 0 960 560"
   xml:space="preserve"
   inkscape:version="0.48.4 r9939"
   sodipodi:docname="tickets-logo.svg"><metadata
     id="metadata8635"><rdf:RDF><cc:Work
         rdf:about=""><dc:format>image/svg+xml</dc:format><dc:type
           rdf:resource="http://purl.org/dc/dcmitype/StillImage" /><dc:title></dc:title></cc:Work></rdf:RDF></metadata><defs
     id="defs8633" /><sodipodi:namedview
     pagecolor="#ffffff"
     bordercolor="#666666"
     borderopacity="1"
     objecttolerance="10"
     gridtolerance="10"
     guidetolerance="10"
     inkscape:pageopacity="0"
     inkscape:pageshadow="2"
     inkscape:window-width="1920"
     inkscape:window-height="1056"
     id="namedview8631"
     showgrid="false"
     inkscape:zoom="2"
     inkscape:cx="141.00163"
     inkscape:cy="188.49315"
     inkscape:window-x="0"
     inkscape:window-y="24"
     inkscape:window-maximized="1"
     inkscape:current-layer="Layer_1" /><g
     id="g8761"
     transform="matrix(0.73053182,0,0,0.63976085,-68.647074,153.3229)"
     inkscape:export-filename="/home/dcramer/rax/rax-indexwar/src/main/webapp/common/img/tickets-fanatiguy.png"
     inkscape:export-xdpi="105.14909"
     inkscape:export-ydpi="105.14909"><path
       clip-rule="evenodd"
       stroke-miterlimit="3.8637"
       d="m 320.959,468.145 c 1.604,-3.498 0,-15.602 -14.435,-12.831"
       id="path8763"
       inkscape:connector-curvature="0"
       style="fill:none;stroke:#555555;stroke-width:1.5;stroke-linecap:round;stroke-linejoin:round;stroke-miterlimit:3.86369991" /><path
       clip-rule="evenodd"
       stroke-miterlimit="3.8637"
       d="m 307.254,456.626 c -0.437,-4.52 -10.352,-17.643 -23.767,-8.165 -5.505,3.889 -6.562,13.561 -3.062,18.664"
       id="path8765"
       inkscape:connector-curvature="0"
       style="fill:none;stroke:#555555;stroke-width:1.5;stroke-linecap:round;stroke-linejoin:round;stroke-miterlimit:3.86369991" /><path
       clip-rule="evenodd"
       stroke-miterlimit="3.8637"
       d="m 280.425,465.375 c -12.394,5.395 -8.894,24.788 3.208,24.788 12.102,0 31.789,0.05 35.286,-0.146 12.977,-0.729 16.04,-17.788 2.187,-23.037"
       id="path8767"
       inkscape:connector-curvature="0"
       style="fill:none;stroke:#555555;stroke-width:1.5;stroke-linecap:round;stroke-linejoin:round;stroke-miterlimit:3.86369991" /><path
       clip-rule="evenodd"
       stroke-miterlimit="3.8637"
       d="m 320.833,468.654 c 1.611,-3.518 0,-15.684 -14.511,-12.898"
       id="path8769"
       inkscape:connector-curvature="0"
       style="fill:none;stroke:#555555;stroke-width:1.5;stroke-linecap:round;stroke-linejoin:round;stroke-miterlimit:3.86369991" /><path
       clip-rule="evenodd"
       stroke-miterlimit="3.8637"
       d="m 307.056,457.074 c -0.44,-4.543 -10.406,-17.734 -23.892,-8.207 -5.534,3.909 -6.595,13.631 -3.079,18.761"
       id="path8771"
       inkscape:connector-curvature="0"
       style="fill:none;stroke:#555555;stroke-width:1.5;stroke-linecap:round;stroke-linejoin:round;stroke-miterlimit:3.86369991" /><path
       clip-rule="evenodd"
       stroke-miterlimit="3.8637"
       d="m 280.085,465.869 c -12.458,5.423 -8.94,24.918 3.225,24.918 12.166,0 31.956,0.05 35.471,-0.147 13.045,-0.732 16.123,-17.882 2.199,-23.158"
       id="path8773"
       inkscape:connector-curvature="0"
       style="fill:none;stroke:#555555;stroke-width:1.5;stroke-linecap:round;stroke-linejoin:round;stroke-miterlimit:3.86369991" /></g><rect
     inkscape:export-filename="/home/dcramer/rax/rax-indexwar/src/main/webapp/common/img/tickets-fanatiguy.png"
     inkscape:export-xdpi="105.14909"
     inkscape:export-ydpi="105.14909"
     style="fill:none;stroke:none"
     id="rect10203"
     width="169.48215"
     height="85.48214"
     x="125.75893"
     y="404.25894" /><g
     transform="matrix(0.7652261,0,0,0.7652261,107.32162,85.135376)"
     id="g3709"><path
       style="fill:none;stroke:#4d4d4d;stroke-width:2;stroke-linecap:round;stroke-linejoin:round;stroke-miterlimit:3.86369991"
       inkscape:connector-curvature="0"
       clip-rule="evenodd"
       stroke-miterlimit="3.8637"
       d="m 86.959,504.774 c 0.067,0.471 0.269,14.302 0.336,14.84"
       id="path3711" /><path
       style="fill:none;stroke:#4d4d4d;stroke-width:2;stroke-linecap:round;stroke-linejoin:round;stroke-miterlimit:3.86369991"
       inkscape:connector-curvature="0"
       clip-rule="evenodd"
       stroke-miterlimit="3.8637"
       d="m 86.959,504.723 c 4.435,-0.601 8.683,-0.473 11.291,1.867 2.535,2.275 4.423,8.673 -0.336,11.814 -3.621,2.392 -9.88,1.35 -9.88,1.35"
       id="path3713" /></g><g
     transform="matrix(0.7652261,0,0,0.7652261,107.32162,85.135376)"
     id="g3715"><path
       style="fill:none;stroke:#4d4d4d;stroke-width:2;stroke-linecap:round;stroke-linejoin:round;stroke-miterlimit:3.86369991"
       inkscape:connector-curvature="0"
       clip-rule="evenodd"
       stroke-miterlimit="3.8637"
       d="m 105.167,504.846 c -0.062,0.691 0,12.652 0.502,14.91 0.234,1.058 11.587,0.127 11.587,0.127"
       id="path3717" /><path
       style="fill:none;stroke:#4d4d4d;stroke-width:2;stroke-linecap:round;stroke-linejoin:round;stroke-miterlimit:3.86369991"
       inkscape:connector-curvature="0"
       clip-rule="evenodd"
       stroke-miterlimit="3.8637"
       d="m 105.921,505.097 c 0.312,-0.062 10.959,-0.251 10.959,-0.251"
       id="path3719" /><path
       style="fill:none;stroke:#4d4d4d;stroke-width:2;stroke-linecap:round;stroke-linejoin:round;stroke-miterlimit:3.86369991"
       inkscape:connector-curvature="0"
       clip-rule="evenodd"
       stroke-miterlimit="3.8637"
       d="m 106.171,512.484 c 0.315,-0.005 7.763,-0.121 8.137,-0.19"
       id="path3721" /></g><path
     style="fill:none;stroke:#4d4d4d;stroke-width:1.53045225;stroke-linecap:round;stroke-linejoin:round;stroke-miterlimit:3.86369991"
     inkscape:connector-curvature="0"
     clip-rule="evenodd"
     stroke-miterlimit="3.8637"
     d="m 223.08272,473.32845 c -0.0482,-0.62289 -2.0156,-2.15946 -5.41933,-1.87404 -4.01896,0.33517 -5.14232,4.25696 -5.09105,6.36592 0.0513,2.1082 1.23661,5.41168 5.75986,5.29766 4.22252,-0.1079 4.84235,-1.37894 5.18135,-2.45944 0.46449,-1.47765 0.14462,-2.78312 0.14462,-2.78312 l -5.08722,0.0964"
     id="path3731" /><g
     transform="matrix(0.7652261,0,0,0.7652261,107.32162,85.135376)"
     id="g3733"><path
       style="fill:none;stroke:#4d4d4d;stroke-width:2;stroke-linecap:round;stroke-linejoin:round;stroke-miterlimit:3.86369991"
       inkscape:connector-curvature="0"
       clip-rule="evenodd"
       stroke-miterlimit="3.8637"
       d="m 157.108,504.657 c 0,0.313 0.188,14.785 0.315,15.162"
       id="path3735" /><path
       style="fill:none;stroke:#4d4d4d;stroke-width:2;stroke-linecap:round;stroke-linejoin:round;stroke-miterlimit:3.86369991"
       inkscape:connector-curvature="0"
       clip-rule="evenodd"
       stroke-miterlimit="3.8637"
       d="m 170.576,504.344 c -0.075,0.691 0.376,15.226 0.503,15.601"
       id="path3737" /><path
       style="fill:none;stroke:#4d4d4d;stroke-width:2;stroke-linecap:round;stroke-linejoin:round;stroke-miterlimit:3.86369991"
       inkscape:connector-curvature="0"
       clip-rule="evenodd"
       stroke-miterlimit="3.8637"
       d="m 157.597,512.798 c 1.129,-0.129 11.852,-0.064 13.044,-0.378"
       id="path3739" /></g><g
     transform="matrix(0.7652261,0,0,0.7652261,107.32162,85.135376)"
     id="g3741"><path
       style="fill:none;stroke:#4d4d4d;stroke-width:2;stroke-linecap:round;stroke-linejoin:round;stroke-miterlimit:3.86369991"
       inkscape:connector-curvature="0"
       clip-rule="evenodd"
       stroke-miterlimit="3.8637"
       d="m 181.721,504.657 c 0,0.313 0.189,14.785 0.313,15.162"
       id="path3743" /><path
       style="fill:none;stroke:#4d4d4d;stroke-width:2;stroke-linecap:round;stroke-linejoin:round;stroke-miterlimit:3.86369991"
       inkscape:connector-curvature="0"
       clip-rule="evenodd"
       stroke-miterlimit="3.8637"
       d="m 179.909,519.942 c 0.563,0 4.639,-0.126 5.016,-0.188"
       id="path3745" /><path
       style="fill:none;stroke:#4d4d4d;stroke-width:2;stroke-linecap:round;stroke-linejoin:round;stroke-miterlimit:3.86369991"
       inkscape:connector-curvature="0"
       clip-rule="evenodd"
       stroke-miterlimit="3.8637"
       d="m 179.213,504.532 c 0.438,0 5.268,-0.188 5.518,-0.124"
       id="path3747" /></g><g
     transform="matrix(0.7652261,0,0,0.7652261,107.32162,85.135376)"
     id="g3749"><path
       style="fill:none;stroke:#4d4d4d;stroke-width:2;stroke-linecap:round;stroke-linejoin:round;stroke-miterlimit:3.86369991"
       inkscape:connector-curvature="0"
       clip-rule="evenodd"
       stroke-miterlimit="3.8637"
       d="m 191.18,516.462 c -0.313,0.25 -0.921,1.605 1.95,2.983 2.869,1.381 6.293,0.512 7.637,-1.566 1.254,-1.944 1.124,-5.772 0.999,-7.593 -0.07,-1.008 -0.32,-5.932 -0.32,-5.932"
       id="path3751" /><path
       style="fill:none;stroke:#4d4d4d;stroke-width:2;stroke-linecap:round;stroke-linejoin:round;stroke-miterlimit:3.86369991"
       inkscape:connector-curvature="0"
       clip-rule="evenodd"
       stroke-miterlimit="3.8637"
       d="m 197.504,504.47 c 0.438,0 6.083,-0.251 6.335,-0.188"
       id="path3753" /></g><g
     transform="matrix(0.7652261,0,0,0.7652261,107.32162,85.135376)"
     id="g3755"><path
       style="fill:none;stroke:#4d4d4d;stroke-width:2;stroke-linecap:round;stroke-linejoin:round;stroke-miterlimit:3.86369991"
       inkscape:connector-curvature="0"
       clip-rule="evenodd"
       stroke-miterlimit="3.8637"
       d="m 210.907,504.344 c -0.079,0.691 0.377,15.226 0.5,15.601"
       id="path3757" /><path
       style="fill:none;stroke:#4d4d4d;stroke-width:2;stroke-linecap:round;stroke-linejoin:round;stroke-miterlimit:3.86369991"
       inkscape:connector-curvature="0"
       clip-rule="evenodd"
       stroke-miterlimit="3.8637"
       d="m 211.116,514.617 c 0.161,-0.562 8.661,-5.052 11.708,-10.184"
       id="path3759" /><path
       style="fill:none;stroke:#4d4d4d;stroke-width:2;stroke-linecap:round;stroke-linejoin:round;stroke-miterlimit:3.86369991"
       inkscape:connector-curvature="0"
       clip-rule="evenodd"
       stroke-miterlimit="3.8637"
       d="m 215.847,511.33 c 3.529,3.047 8.339,7.778 8.421,8.741"
       id="path3761" /></g><g
     transform="matrix(0.7652261,0,0,0.7652261,107.32162,85.135376)"
     id="g3763"><path
       style="fill:none;stroke:#4d4d4d;stroke-width:2;stroke-linecap:round;stroke-linejoin:round;stroke-miterlimit:3.86369991"
       inkscape:connector-curvature="0"
       clip-rule="evenodd"
       stroke-miterlimit="3.8637"
       d="m 250.607,504.995 c 1.802,1.684 9.144,12.43 9.144,12.43 0,0 5.217,-9.384 6.494,-11.787 1.276,-2.405 2.165,-0.481 2.16,1.122 -10e-4,0.688 0.567,12.81 0.47,13.185"
       id="path3765" /><path
       style="fill:none;stroke:#4d4d4d;stroke-width:2;stroke-linecap:round;stroke-linejoin:round;stroke-miterlimit:3.86369991"
       inkscape:connector-curvature="0"
       clip-rule="evenodd"
       stroke-miterlimit="3.8637"
       d="m 249.998,504.344 c -0.076,0.691 0.377,15.226 0.503,15.601"
       id="path3767" /></g><g
     transform="matrix(0.7652261,0,0,0.7652261,107.32162,85.135376)"
     id="g3769"><path
       style="fill:none;stroke:#4d4d4d;stroke-width:2;stroke-linecap:round;stroke-linejoin:round;stroke-miterlimit:3.86369991"
       inkscape:connector-curvature="0"
       clip-rule="evenodd"
       stroke-miterlimit="3.8637"
       d="m 316.061,505.312 c -0.079,0.691 0.359,14.258 0.485,14.633"
       id="path3771" /><path
       style="fill:none;stroke:#4d4d4d;stroke-width:2;stroke-linecap:round;stroke-linejoin:round;stroke-miterlimit:3.86369991"
       inkscape:connector-curvature="0"
       clip-rule="evenodd"
       stroke-miterlimit="3.8637"
       d="m 316.219,505.043 c 1.144,-0.269 6.099,-0.63 9.216,-0.17 4.823,0.713 5.426,6.03 0.712,7.565 -1.888,0.614 -8.784,0.905 -8.784,0.905"
       id="path3773" /></g><g
     transform="matrix(0.7652261,0,0,0.7652261,107.32162,85.135376)"
     id="g3775"><path
       style="fill:none;stroke:#4d4d4d;stroke-width:2;stroke-linecap:round;stroke-linejoin:round;stroke-miterlimit:3.86369991"
       inkscape:connector-curvature="0"
       clip-rule="evenodd"
       stroke-miterlimit="3.8637"
       d="m 339.787,504.754 c -1.285,0.159 -6.723,2.365 -5.158,9.416 1.44,6.491 8.592,6.678 12.576,4.629 3.727,-1.916 4.425,-7.791 2.349,-10.855 -2.302,-3.398 -7.435,-3.589 -9.854,-2.791"
       id="path3777" /><path
       style="fill:none;stroke:#4d4d4d;stroke-width:2;stroke-linecap:round;stroke-linejoin:round;stroke-miterlimit:3.86369991"
       inkscape:connector-curvature="0"
       clip-rule="evenodd"
       stroke-miterlimit="3.8637"
       d="m 344.628,516.353 c 0.177,0.755 0.688,5.332 5.736,4.56"
       id="path3779" /></g><g
     transform="matrix(0.7652261,0,0,0.7652261,107.32162,85.135376)"
     id="g3781"><path
       style="fill:none;stroke:#4d4d4d;stroke-width:2;stroke-linecap:round;stroke-linejoin:round;stroke-miterlimit:3.86369991"
       inkscape:connector-curvature="0"
       clip-rule="evenodd"
       stroke-miterlimit="3.8637"
       d="m 398.74,505.309 c -0.089,0.688 0.112,14.261 0.23,14.64"
       id="path3783" /><path
       style="fill:none;stroke:#4d4d4d;stroke-width:2;stroke-linecap:round;stroke-linejoin:round;stroke-miterlimit:3.86369991"
       inkscape:connector-curvature="0"
       clip-rule="evenodd"
       stroke-miterlimit="3.8637"
       d="m 391.707,504.929 c 0.274,0 13.869,-0.329 14.252,-0.329"
       id="path3785" /></g><path
     style="fill:none;stroke:#4d4d4d;stroke-width:1.53045225;stroke-linecap:round;stroke-linejoin:round;stroke-miterlimit:3.86369991"
     inkscape:connector-curvature="0"
     clip-rule="evenodd"
     stroke-miterlimit="3.8637"
     d="m 422.04151,471.30979 c -0.25253,-0.0421 -0.37802,4.61354 0,7.67598 0.37649,3.06167 2.93541,4.1942 5.53564,4.15288 2.60101,-0.0421 4.86608,-1.46847 5.07575,-4.1942 0.20967,-2.7265 -0.16758,-7.76016 -0.16758,-7.76016"
     id="path3793" /><path
     style="fill:none;stroke:#4d4d4d;stroke-width:1.53045225;stroke-linecap:round;stroke-linejoin:round;stroke-miterlimit:3.86369991"
     inkscape:connector-curvature="0"
     clip-rule="evenodd"
     stroke-miterlimit="3.8637"
     d="m 436.0505,471.39396 c 0.54484,2.55892 4.27915,10.36116 4.61432,11.07435 0.29308,0.62519 1.02234,1.28482 1.5932,0 0.67187,-1.51055 4.6564,-10.61292 4.40464,-11.03226"
     id="path3795" /><path
     style="fill:none;stroke:#4d4d4d;stroke-width:1.53045225;stroke-linecap:round;stroke-linejoin:round;stroke-miterlimit:3.86369991"
     inkscape:connector-curvature="0"
     clip-rule="evenodd"
     stroke-miterlimit="3.8637"
     d="m 449.85595,471.64572 c 0.31144,2.97826 2.8849,9.98314 3.33715,10.82259 0.31833,0.59229 0.92898,1.28482 1.5052,0 0.67569,-1.51055 2.27655,-5.88918 2.71272,-7.31632 0.39792,-1.29859 0.98944,-2.89715 1.71105,-0.65351 0.75451,2.34925 3.00122,7.25664 3.33945,7.92775 0.76599,1.52127 1.21747,0.33517 1.74318,-1.46847 0.52648,-1.80288 2.92317,-9.52171 2.61095,-9.6893"
     id="path3797" /><g
     transform="matrix(0.7652261,0,0,0.7652261,107.32162,85.135376)"
     id="g3799"><path
       style="fill:none;stroke:#4d4d4d;stroke-width:2;stroke-linecap:round;stroke-linejoin:round;stroke-miterlimit:3.86369991"
       inkscape:connector-curvature="0"
       clip-rule="evenodd"
       stroke-miterlimit="3.8637"
       d="m 474.041,504.929 c 0.273,0 12.827,15.184 13.209,15.184"
       id="path3801" /><path
       style="fill:none;stroke:#4d4d4d;stroke-width:2;stroke-linecap:round;stroke-linejoin:round;stroke-miterlimit:3.86369991"
       inkscape:connector-curvature="0"
       clip-rule="evenodd"
       stroke-miterlimit="3.8637"
       d="m 487.25,504.545 c -0.088,0.688 -12.397,15.627 -12.278,16.006"
       id="path3803" /></g><g
     transform="matrix(0.7652261,0,0,0.7652261,107.32162,85.135376)"
     id="g3811"><path
       style="fill:none;stroke:#4d4d4d;stroke-width:2;stroke-linecap:round;stroke-linejoin:round;stroke-miterlimit:3.86369991"
       inkscape:connector-curvature="0"
       clip-rule="evenodd"
       stroke-miterlimit="3.8637"
       d="m 491.422,504.271 c 0.408,0.329 6.654,8.387 7.473,9.264 0.819,0.877 2.818,-1.499 5.273,-5.043 1.354,-1.958 2.916,-4.221 2.609,-4.659"
       id="path3813" /><path
       style="fill:none;stroke:#4d4d4d;stroke-width:2;stroke-linecap:round;stroke-linejoin:round;stroke-miterlimit:3.86369991"
       inkscape:connector-curvature="0"
       clip-rule="evenodd"
       stroke-miterlimit="3.8637"
       d="m 499.365,514.006 c 0.055,0.438 -0.055,6.193 0.109,6.468"
       id="path3815" /></g><g
     transform="matrix(0.7652261,0,0,0.7652261,107.32162,85.135376)"
     id="g3817"><path
       style="fill:none;stroke:#4d4d4d;stroke-width:2;stroke-linecap:round;stroke-linejoin:round;stroke-miterlimit:3.86369991"
       inkscape:connector-curvature="0"
       clip-rule="evenodd"
       stroke-miterlimit="3.8637"
       d="m 509.26,505.752 c 0.619,-0.757 6.541,-0.6 11.312,-0.68 1.953,-0.032 2.764,1.51 -0.482,4.833 -2.824,2.893 -9.916,9.976 -10.463,9.898"
       id="path3819" /><path
       style="fill:none;stroke:#4d4d4d;stroke-width:2;stroke-linecap:round;stroke-linejoin:round;stroke-miterlimit:3.86369991"
       inkscape:connector-curvature="0"
       clip-rule="evenodd"
       stroke-miterlimit="3.8637"
       d="m 510.438,519.885 c 0.436,-0.049 12.646,0.125 12.461,-0.263"
       id="path3821" /></g><g
     transform="matrix(0.7652261,0,0,0.7652261,107.32162,85.135376)"
     id="g3823"><path
       style="fill:none;stroke:#4d4d4d;stroke-width:2;stroke-linecap:round;stroke-linejoin:round;stroke-miterlimit:3.86369991"
       inkscape:connector-curvature="0"
       clip-rule="evenodd"
       stroke-miterlimit="3.8637"
       d="m 49.82,505.111 c 0.068,0.336 0.74,13.965 0.74,14.503"
       id="path3825" /><path
       style="fill:none;stroke:#4d4d4d;stroke-width:2;stroke-linecap:round;stroke-linejoin:round;stroke-miterlimit:3.86369991"
       inkscape:connector-curvature="0"
       clip-rule="evenodd"
       stroke-miterlimit="3.8637"
       d="m 55.13,512.087 c 5.012,-0.259 9.218,1.145 9.059,4.234 -0.139,2.708 -2.15,3.495 -4.502,3.562 -3.226,0.093 -8.86,0.135 -8.86,0.135"
       id="path3827" /><path
       style="fill:none;stroke:#4d4d4d;stroke-width:2;stroke-linecap:round;stroke-linejoin:round;stroke-miterlimit:3.86369991"
       inkscape:connector-curvature="0"
       clip-rule="evenodd"
       stroke-miterlimit="3.8637"
       d="m 50.116,505.043 c 1.143,-0.269 6.681,-0.604 9.773,0 3.491,0.684 3.337,5.036 0.133,6.237 -1.946,0.731 -6.42,0.958 -9.603,1.022"
       id="path3829" /></g><path
     style="fill:none;stroke:#4d4d4d;stroke-width:1.53045225;stroke-linecap:round;stroke-linejoin:round;stroke-miterlimit:3.86369991"
     inkscape:connector-curvature="0"
     clip-rule="evenodd"
     stroke-miterlimit="3.8637"
     d="m 402.5359,472.77749 c -0.0834,-0.54484 -1.34221,-1.84496 -4.69773,-1.80287 -3.35628,0.0421 -5.66267,2.97826 -3.69145,4.73981 0.53719,0.48056 1.76385,1.07438 6.54345,1.21671 4.23706,0.12549 3.98453,3.23002 2.93694,4.36255 -1.04913,1.13177 -3.48178,1.97046 -6.66971,1.63529 -2.27885,-0.23952 -3.35935,-1.47306 -3.2744,-1.97658"
     id="path3831" /><path
     style="fill:none;stroke:#4d4d4d;stroke-width:1.53045225;stroke-linecap:round;stroke-linejoin:round;stroke-miterlimit:3.86369991"
     inkscape:connector-curvature="0"
     clip-rule="evenodd"
     stroke-miterlimit="3.8637"
     d="m 168.41344,473.40804 c 0.013,-0.40098 -0.515,-2.36761 -4.78343,-1.95363 -3.63482,0.35277 -5.14232,4.25696 -5.09105,6.36592 0.0513,2.1082 1.23355,5.29766 5.75986,5.29766 4.52631,0 5.39025,-2.46862 5.39025,-2.46862"
     id="path3833" /><path
     style="fill:none;stroke:#4d4d4d;stroke-width:1.53045225;stroke-linecap:round;stroke-linejoin:round;stroke-miterlimit:3.86369991"
     inkscape:connector-curvature="0"
     clip-rule="evenodd"
     stroke-miterlimit="3.8637"
     d="m 337.41133,471.17511 c -0.98332,0.12167 -5.82949,1.93372 -4.70079,7.39055 1.1027,5.33898 6.67737,5.13467 9.69466,3.55983 2.82138,-1.47306 3.31878,-6.40647 1.41872,-8.55446 -1.60621,-1.81282 -4.37403,-2.39516 -6.37969,-2.15182"
     id="path3835" /><g
     transform="matrix(0.7652261,0,0,0.7652261,107.32162,85.135376)"
     id="g3837"><path
       style="fill:none;stroke:#4d4d4d;stroke-width:2;stroke-linecap:round;stroke-linejoin:round;stroke-miterlimit:3.86369991"
       inkscape:connector-curvature="0"
       clip-rule="evenodd"
       stroke-miterlimit="3.8637"
       d="m 32.022,519.926 c 0,0 5.413,-13.068 5.692,-13.874 0.536,-1.547 2.066,-1.245 2.804,0.35 1.72,3.711 6.427,13.524 6.427,13.524"
       id="path3839" /><path
       style="fill:none;stroke:#4d4d4d;stroke-width:2;stroke-linecap:round;stroke-linejoin:round;stroke-miterlimit:3.86369991"
       inkscape:connector-curvature="0"
       clip-rule="evenodd"
       stroke-miterlimit="3.8637"
       d="m 34.648,515.312 c 0.269,0 8.967,-0.47 8.967,-0.47"
       id="path3841" /></g><g
     transform="matrix(0.7652261,0,0,0.7652261,107.32162,85.135376)"
     id="g3843"><path
       style="fill:none;stroke:#4d4d4d;stroke-width:2;stroke-linecap:round;stroke-linejoin:round;stroke-miterlimit:3.86369991"
       inkscape:connector-curvature="0"
       clip-rule="evenodd"
       stroke-miterlimit="3.8637"
       d="m 274.341,504.798 c -0.077,0.689 0.147,14.635 0.272,15.01"
       id="path3845" /><path
       style="fill:none;stroke:#4d4d4d;stroke-width:2;stroke-linecap:round;stroke-linejoin:round;stroke-miterlimit:3.86369991"
       inkscape:connector-curvature="0"
       clip-rule="evenodd"
       stroke-miterlimit="3.8637"
       d="m 274.822,505.279 c 1.802,1.684 10.079,12.471 10.079,12.471 2.002,2.326 3.366,2.969 4.169,1.124 0.802,-1.845 0.225,-13.177 -0.124,-14.567"
       id="path3847" /></g><g
     transform="matrix(0.7652261,0,0,0.7652261,107.32162,85.135376)"
     id="g3871"><path
       style="fill:none;stroke:#4d4d4d;stroke-width:2;stroke-linecap:round;stroke-linejoin:round;stroke-miterlimit:3.86369991"
       inkscape:connector-curvature="0"
       clip-rule="evenodd"
       stroke-miterlimit="3.8637"
       d="m 356.093,505.309 c -0.089,0.688 0.111,14.261 0.23,14.64"
       id="path3873" /><path
       style="fill:none;stroke:#4d4d4d;stroke-width:2;stroke-linecap:round;stroke-linejoin:round;stroke-miterlimit:3.86369991"
       inkscape:connector-curvature="0"
       clip-rule="evenodd"
       stroke-miterlimit="3.8637"
       d="m 356.416,504.931 c 1.146,-0.251 6.109,-0.524 9.216,-0.011 4.811,0.797 5.321,6.124 0.579,7.576 -1.898,0.581 -8.798,0.752 -8.798,0.752"
       id="path3875" /><line
       style="fill:none;stroke:#4d4d4d;stroke-width:2;stroke-linecap:round;stroke-linejoin:round;stroke-miterlimit:3.86369991"
       clip-rule="evenodd"
       stroke-miterlimit="3.8637"
       x1="363.09299"
       y1="513.04102"
       x2="369.06799"
       y2="519.98901"
       id="line3877" /></g><g
     transform="matrix(0.7652261,0,0,0.7652261,107.32162,85.135376)"
     id="g3969"><path
       style="fill:none;stroke:#4d4d4d;stroke-width:2;stroke-linecap:round;stroke-linejoin:round;stroke-miterlimit:3.86369991"
       inkscape:connector-curvature="0"
       clip-rule="evenodd"
       stroke-miterlimit="3.8637"
       d="m 122.083,505.284 c 0,0.313 0.188,14.596 0.313,14.972"
       id="path3971" /><path
       style="fill:none;stroke:#4d4d4d;stroke-width:2;stroke-linecap:round;stroke-linejoin:round;stroke-miterlimit:3.86369991"
       inkscape:connector-curvature="0"
       clip-rule="evenodd"
       stroke-miterlimit="3.8637"
       d="m 122.835,505.159 c 0.438,-0.124 10.208,-0.25 10.521,-0.25"
       id="path3973" /><path
       style="fill:none;stroke:#4d4d4d;stroke-width:2;stroke-linecap:round;stroke-linejoin:round;stroke-miterlimit:3.86369991"
       inkscape:connector-curvature="0"
       clip-rule="evenodd"
       stroke-miterlimit="3.8637"
       d="m 122.961,512.798 c 0.313,-0.005 8.264,-0.246 8.639,-0.315"
       id="path3975" /></g><path
     style="fill:none;stroke:#4d4d4d;stroke-width:1.53045225;stroke-linecap:round;stroke-linejoin:round;stroke-miterlimit:3.86369991"
     inkscape:connector-curvature="0"
     clip-rule="evenodd"
     stroke-miterlimit="3.8637"
     d="m 284.14011,471.45671 c -0.0482,0.52877 -0.15304,9.68164 0.23187,11.40952 0.1783,0.80961 8.86667,0.0972 8.86667,0.0972"
     id="path4291" /></svg>